<?xml version="1.0" encoding="UTF-8" standalone="no"?>
<!-- Created with Inkscape (http://www.inkscape.org/) -->

<svg
   xmlns:dc="http://purl.org/dc/elements/1.1/"
   xmlns:cc="http://creativecommons.org/ns#"
   xmlns:rdf="http://www.w3.org/1999/02/22-rdf-syntax-ns#"
   xmlns:svg="http://www.w3.org/2000/svg"
   xmlns="http://www.w3.org/2000/svg"
   version="1.1"
   width="500"
   height="500"
   id="svg2">
  <metadata
     id="metadata8">
    <rdf:RDF>
      <cc:Work
         rdf:about="">
        <dc:format>image/svg+xml</dc:format>
        <dc:type
           rdf:resource="http://purl.org/dc/dcmitype/StillImage" />
        <dc:title></dc:title>
      </cc:Work>
    </rdf:RDF>
  </metadata>
  <defs
     id="defs6">
    <clipPath
       id="clipPath5595">
      <path
         d="M 222.94331,38.961861 C 154.11068,46.754241 90.781908,37.842671 4.7568754,14.935381 258.99879,99.173221 244.90568,45.978801 34.627639,198.70551 252.28073,81.296631 272.55347,48.810541 103.46027,311.69492 286.97194,79.114251 230.42244,68.955351 268.39883,422.08686 c -6.18039,-192.33458 5.84428,-310.39618 5.84428,-310.39618 0,0 -38.3125,-12.987289 -51.29979,-72.728819 z"
         id="path5597"
         style="fill:#003271;fill-opacity:1;stroke:none" />
    </clipPath>
    <clipPath
       id="clipPath5677">
      <path
         d="M 307.35959,606.50636 C 289.82675,129.22352 284.62372,112.9894 308.00895,112.9894 c 23.38523,0 15.58475,16.23412 -0.64936,493.51696 z"
         id="path5679"
         style="fill:#fe0000;fill-opacity:1;stroke:none" />
    </clipPath>
    <filter
       color-interpolation-filters="sRGB"
       id="filter3781">
      <feGaussianBlur
         stdDeviation="6.7663771"
         id="feGaussianBlur3783" />
    </filter>
    <filter
       x="-0.41343489"
       y="-0.025479065"
       width="1.8268698"
       height="1.0509582"
       color-interpolation-filters="sRGB"
       id="filter3785">
      <feGaussianBlur
         stdDeviation="5.2393131"
         id="feGaussianBlur3787" />
    </filter>
  </defs>
  <path
     d="M 6.15625,4.53125 A 1.6751027,1.6751027 0 0 0 5.6875,7.8125 c 51.059173,17.372585 88.642679,27.64329 113.59375,35.25 12.47554,3.803355 21.80797,6.954824 27.96875,9.90625 3.08039,1.475713 5.36901,2.928295 6.84375,4.28125 1.47474,1.352955 2.10896,2.518971 2.25,3.71875 0.14104,1.199779 -0.19792,2.609376 -1.3125,4.375 -1.11458,1.765624 -3.00123,3.816544 -5.59375,6.15625 -5.18504,4.679411 -13.24488,10.454041 -24.03125,17.78125 -21.57274,14.65442 -53.982653,35.56069 -96.21875,67.0625 A 1.6751027,1.6751027 0 0 0 31,159.15625 c 43.690336,-24.20205 77.46474,-44.01845 101.375,-56.71875 11.95513,-6.350151 21.47474,-10.916847 28.40625,-13.34375 3.46575,-1.213451 6.29662,-1.901784 8.375,-2.03125 2.07838,-0.129466 3.25106,0.267213 3.90625,0.875 0.65519,0.607787 1.08199,1.663653 1,3.6875 -0.082,2.023847 -0.73118,4.873391 -2,8.4375 -2.53764,7.12822 -7.51203,17.18803 -14.90625,30.375 -14.78844,26.37394 -39.19679,65.33358 -73.125,119.5 a 1.6751027,1.6751027 0 0 0 2.75,1.90625 c 36.8499,-47.95974 61.63247,-84.47683 78.53125,-107.625 8.44939,-11.57409 14.96511,-19.81664 19.84375,-24.375 2.43932,-2.27918 4.48686,-3.59399 5.9375,-4.03125 1.45064,-0.43726 2.19166,-0.25791 3.1875,0.6875 1.99167,1.89082 4.03319,8.02923 5.4375,18.28125 1.40431,10.25202 2.42807,24.59061 3.59375,43.15625 2.33135,37.13127 5.21952,91.22823 12.84375,164.03125 a 1.6765414,1.6765414 0 0 0 3.34375,-0.25 C 214.54249,183.28963 224.15625,86.125 224.15625,86.125 a 1.6751027,1.6751027 0 0 0 -1.09375,-1.75 c 0,0 -7.29618,-2.480089 -16.0625,-11.09375 -8.76632,-8.613661 -18.88353,-23.277105 -24.03125,-47.59375 a 1.6751027,1.6751027 0 0 0 -1.8125,-1.3125 C 126.17491,30.766778 75.603728,23.447505 6.65625,4.59375 a 1.6751027,1.6751027 0 0 0 -0.5,-0.0625 z m 487.625,0 a 1.6751027,1.6751027 0 0 0 -0.4375,0.0625 c -68.94749,18.853755 -119.51866,26.173028 -174.5,19.78125 a 1.6751027,1.6751027 0 0 0 -1.8125,1.3125 C 311.88353,50.004145 301.76632,64.667589 293,73.28125 284.23368,81.894911 276.9375,84.375 276.9375,84.375 a 1.6751027,1.6751027 0 0 0 -1.09375,1.75 c 0,0 9.61375,97.16463 4.65625,255.59375 a 1.6765414,1.6765414 0 0 0 3.34375,0.25 c 7.62423,-72.80302 10.5124,-126.89998 12.84375,-164.03125 1.16567,-18.56564 2.18944,-32.90423 3.59375,-43.15625 1.40431,-10.25202 3.44583,-16.39043 5.4375,-18.28125 0.99584,-0.94541 1.73686,-1.12476 3.1875,-0.6875 1.45064,0.43726 3.49818,1.75207 5.9375,4.03125 4.87864,4.55836 11.39436,12.80091 19.84375,24.375 16.89879,23.14817 41.68135,59.66526 78.53125,107.625 a 1.6751027,1.6751027 0 0 0 2.75,-1.90625 c -33.92821,-54.16642 -58.33656,-93.12606 -73.125,-119.5 -7.39422,-13.18697 -12.36861,-23.24678 -14.90625,-30.375 -1.26882,-3.564109 -1.91801,-6.413653 -2,-8.4375 -0.082,-2.023847 0.34481,-3.079713 1,-3.6875 0.65519,-0.607787 1.82787,-1.004466 3.90625,-0.875 2.07838,0.129466 4.90925,0.817799 8.375,2.03125 6.93151,2.426903 16.45112,6.993599 28.40625,13.34375 23.91026,12.7003 57.68466,32.5167 101.375,56.71875 a 1.6751027,1.6751027 0 0 0 1.8125,-2.8125 C 428.5764,124.84194 396.16649,103.93567 374.59375,89.28125 363.80738,81.954041 355.74754,76.179411 350.5625,71.5 c -2.59252,-2.339706 -4.47917,-4.390626 -5.59375,-6.15625 -1.11458,-1.765624 -1.45354,-3.175221 -1.3125,-4.375 0.14104,-1.199779 0.77526,-2.365795 2.25,-3.71875 1.47474,-1.352955 3.76336,-2.805537 6.84375,-4.28125 6.16078,-2.951426 15.49321,-6.102895 27.96875,-9.90625 24.95107,-7.60671 62.53458,-17.877415 113.59375,-35.25 A 1.6751027,1.6751027 0 0 0 493.78125,4.53125 z M 251.375,56.625 c -2.6107,0 -5.13576,0.236998 -7.34375,1.75 -2.20799,1.513002 -3.82694,4.147119 -4.96875,8.3125 -2.28362,8.330762 -3.05676,23.293086 -2.8125,51.4375 0.48853,56.28883 5.34397,165.09773 12.875,375.625 a 1.6875,1.6875 0 0 0 3.375,0 c 6.97308,-210.52426 12.12159,-319.34678 13.03125,-375.625 0.45483,-28.139108 -0.10844,-43.083318 -2.1875,-51.40625 -1.03953,-4.161466 -2.52929,-6.813816 -4.6875,-8.34375 -2.15821,-1.529934 -4.67056,-1.75 -7.28125,-1.75 z"
     id="path3762"
     style="fill:#000000;fill-opacity:1;stroke:none" />
</svg>
