<?xml version="1.0" encoding="UTF-8" standalone="no"?>
<svg
   xmlns:dc="http://purl.org/dc/elements/1.1/"
   xmlns:cc="http://creativecommons.org/ns#"
   xmlns:rdf="http://www.w3.org/1999/02/22-rdf-syntax-ns#"
   xmlns:svg="http://www.w3.org/2000/svg"
   xmlns="http://www.w3.org/2000/svg"
   xmlns:sodipodi="http://sodipodi.sourceforge.net/DTD/sodipodi-0.dtd"
   xmlns:inkscape="http://www.inkscape.org/namespaces/inkscape"
   inkscape:version="1.0 (4035a4fb49, 2020-05-01)"
   sodipodi:docname="logo.svg"
   id="svg2"
   height="500"
   width="500"
   version="1.1">
  <sodipodi:namedview
     inkscape:current-layer="svg2"
     inkscape:window-maximized="1"
     inkscape:window-y="-8"
     inkscape:window-x="1912"
     inkscape:cy="250"
     inkscape:cx="250"
     inkscape:zoom="1.684"
     showgrid="false"
     id="namedview14"
     inkscape:window-height="1009"
     inkscape:window-width="1920"
     inkscape:pageshadow="2"
     inkscape:pageopacity="0"
     guidetolerance="10"
     gridtolerance="10"
     objecttolerance="10"
     borderopacity="1"
     bordercolor="#666666"
     pagecolor="#ffffff" />
  <metadata
     id="metadata8">
    <rdf:RDF>
      <cc:Work
         rdf:about="">
        <dc:format>image/svg+xml</dc:format>
        <dc:type
           rdf:resource="http://purl.org/dc/dcmitype/StillImage" />
        <dc:title />
      </cc:Work>
    </rdf:RDF>
  </metadata>
  <defs
     id="defs6">
    <clipPath
       id="clipPath5595">
      <path
         style="fill:#003271;fill-opacity:1;stroke:none"
         id="path5597"
         d="M 222.94331,38.961861 C 154.11068,46.754241 90.781908,37.842671 4.7568754,14.935381 258.99879,99.173221 244.90568,45.978801 34.627639,198.70551 252.28073,81.296631 272.55347,48.810541 103.46027,311.69492 286.97194,79.114251 230.42244,68.955351 268.39883,422.08686 c -6.18039,-192.33458 5.84428,-310.39618 5.84428,-310.39618 0,0 -38.3125,-12.987289 -51.29979,-72.728819 z" />
    </clipPath>
    <clipPath
       id="clipPath5677">
      <path
         style="fill:#fe0000;fill-opacity:1;stroke:none"
         id="path5679"
         d="M 307.35959,606.50636 C 289.82675,129.22352 284.62372,112.9894 308.00895,112.9894 c 23.38523,0 15.58475,16.23412 -0.64936,493.51696 z" />
    </clipPath>
    <filter
       id="filter3781"
       color-interpolation-filters="sRGB">
      <feGaussianBlur
         id="feGaussianBlur3783"
         stdDeviation="6.7663771" />
    </filter>
    <filter
       id="filter3785"
       color-interpolation-filters="sRGB"
       height="1.0509582"
       width="1.8268698"
       y="-0.025479065"
       x="-0.41343489">
      <feGaussianBlur
         id="feGaussianBlur3787"
         stdDeviation="5.2393131" />
    </filter>
  </defs>
  <path
     style="fill:#000000;fill-opacity:1;stroke:none"
     id="path3762"
     d="M 6.15625,4.53125 A 1.6751027,1.6751027 0 0 0 5.6875,7.8125 c 51.059173,17.372585 88.642679,27.64329 113.59375,35.25 12.47554,3.803355 21.80797,6.954824 27.96875,9.90625 3.08039,1.475713 5.36901,2.928295 6.84375,4.28125 1.47474,1.352955 2.10896,2.518971 2.25,3.71875 0.14104,1.199779 -0.19792,2.609376 -1.3125,4.375 -1.11458,1.765624 -3.00123,3.816544 -5.59375,6.15625 -5.18504,4.679411 -13.24488,10.454041 -24.03125,17.78125 -21.57274,14.65442 -53.982653,35.56069 -96.21875,67.0625 A 1.6751027,1.6751027 0 0 0 31,159.15625 c 43.690336,-24.20205 77.46474,-44.01845 101.375,-56.71875 11.95513,-6.350151 21.47474,-10.916847 28.40625,-13.34375 3.46575,-1.213451 6.29662,-1.901784 8.375,-2.03125 2.07838,-0.129466 3.25106,0.267213 3.90625,0.875 0.65519,0.607787 1.08199,1.663653 1,3.6875 -0.082,2.023847 -0.73118,4.873391 -2,8.4375 -2.53764,7.12822 -7.51203,17.18803 -14.90625,30.375 -14.78844,26.37394 -39.19679,65.33358 -73.125,119.5 a 1.6751027,1.6751027 0 0 0 2.75,1.90625 c 36.8499,-47.95974 61.63247,-84.47683 78.53125,-107.625 8.44939,-11.57409 14.96511,-19.81664 19.84375,-24.375 2.43932,-2.27918 4.48686,-3.59399 5.9375,-4.03125 1.45064,-0.43726 2.19166,-0.25791 3.1875,0.6875 1.99167,1.89082 4.03319,8.02923 5.4375,18.28125 1.40431,10.25202 2.42807,24.59061 3.59375,43.15625 2.33135,37.13127 5.21952,91.22823 12.84375,164.03125 a 1.6765414,1.6765414 0 0 0 3.34375,-0.25 C 214.54249,183.28963 224.15625,86.125 224.15625,86.125 a 1.6751027,1.6751027 0 0 0 -1.09375,-1.75 c 0,0 -7.29618,-2.480089 -16.0625,-11.09375 -8.76632,-8.613661 -18.88353,-23.277105 -24.03125,-47.59375 a 1.6751027,1.6751027 0 0 0 -1.8125,-1.3125 C 126.17491,30.766778 75.603728,23.447505 6.65625,4.59375 a 1.6751027,1.6751027 0 0 0 -0.5,-0.0625 z m 487.625,0 a 1.6751027,1.6751027 0 0 0 -0.4375,0.0625 c -68.94749,18.853755 -119.51866,26.173028 -174.5,19.78125 a 1.6751027,1.6751027 0 0 0 -1.8125,1.3125 C 311.88353,50.004145 301.76632,64.667589 293,73.28125 284.23368,81.894911 276.9375,84.375 276.9375,84.375 a 1.6751027,1.6751027 0 0 0 -1.09375,1.75 c 0,0 9.61375,97.16463 4.65625,255.59375 a 1.6765414,1.6765414 0 0 0 3.34375,0.25 c 7.62423,-72.80302 10.5124,-126.89998 12.84375,-164.03125 1.16567,-18.56564 2.18944,-32.90423 3.59375,-43.15625 1.40431,-10.25202 3.44583,-16.39043 5.4375,-18.28125 0.99584,-0.94541 1.73686,-1.12476 3.1875,-0.6875 1.45064,0.43726 3.49818,1.75207 5.9375,4.03125 4.87864,4.55836 11.39436,12.80091 19.84375,24.375 16.89879,23.14817 41.68135,59.66526 78.53125,107.625 a 1.6751027,1.6751027 0 0 0 2.75,-1.90625 c -33.92821,-54.16642 -58.33656,-93.12606 -73.125,-119.5 -7.39422,-13.18697 -12.36861,-23.24678 -14.90625,-30.375 -1.26882,-3.564109 -1.91801,-6.413653 -2,-8.4375 -0.082,-2.023847 0.34481,-3.079713 1,-3.6875 0.65519,-0.607787 1.82787,-1.004466 3.90625,-0.875 2.07838,0.129466 4.90925,0.817799 8.375,2.03125 6.93151,2.426903 16.45112,6.993599 28.40625,13.34375 23.91026,12.7003 57.68466,32.5167 101.375,56.71875 a 1.6751027,1.6751027 0 0 0 1.8125,-2.8125 C 428.5764,124.84194 396.16649,103.93567 374.59375,89.28125 363.80738,81.954041 355.74754,76.179411 350.5625,71.5 c -2.59252,-2.339706 -4.47917,-4.390626 -5.59375,-6.15625 -1.11458,-1.765624 -1.45354,-3.175221 -1.3125,-4.375 0.14104,-1.199779 0.77526,-2.365795 2.25,-3.71875 1.47474,-1.352955 3.76336,-2.805537 6.84375,-4.28125 6.16078,-2.951426 15.49321,-6.102895 27.96875,-9.90625 24.95107,-7.60671 62.53458,-17.877415 113.59375,-35.25 A 1.6751027,1.6751027 0 0 0 493.78125,4.53125 z M 251.375,56.625 c -2.6107,0 -5.13576,0.236998 -7.34375,1.75 -2.20799,1.513002 -3.82694,4.147119 -4.96875,8.3125 -2.28362,8.330762 -3.05676,23.293086 -2.8125,51.4375 0.48853,56.28883 5.34397,165.09773 12.875,375.625 a 1.6875,1.6875 0 0 0 3.375,0 c 6.97308,-210.52426 12.12159,-319.34678 13.03125,-375.625 0.45483,-28.139108 -0.10844,-43.083318 -2.1875,-51.40625 -1.03953,-4.161466 -2.52929,-6.813816 -4.6875,-8.34375 -2.15821,-1.529934 -4.67056,-1.75 -7.28125,-1.75 z" />
  <path
     id="path16"
     d="m 249.7462,494.42843 c -0.17814,-0.28825 -1.53368,-33.35683 -3.01231,-73.48575 -1.47863,-40.12893 -3.74938,-101.55432 -5.04612,-136.50087 -4.83926,-130.41669 -5.88914,-172.54395 -4.8393,-194.180527 0.72278,-14.896032 1.29172,-19.496054 3.09041,-24.986392 2.04815,-6.251828 6.66843,-9.12541 13.33336,-8.292683 9.06333,1.132389 11.30909,7.878403 11.96826,35.951284 0.50569,21.537118 -0.47081,54.479218 -6.03773,203.681708 -1.99652,53.50969 -4.79486,132.3583 -5.95366,167.75535 -0.52391,16.00356 -1.06007,29.43141 -1.19147,29.83966 -0.27409,0.85165 -1.82922,0.99846 -2.31144,0.21822 z"
     style="fill:#ea95bf;stroke-width:1.97053" />
  <path
     id="path18"
     d="m 216.47841,341.59739 c -0.33722,-1.55336 -1.49797,-13.20653 -3.56377,-35.77791 -3.18946,-34.84868 -5.25077,-62.33249 -8.03904,-107.18528 -3.73578,-60.09474 -5.24775,-73.51681 -9.04203,-80.26781 -1.69648,-3.01848 -3.47183,-3.45768 -6.81267,-1.68537 -5.97064,3.16742 -13.043,12.08283 -44.67164,56.31311 -35.68114,49.89739 -57.13404,78.6189 -58.987027,78.97284 -0.669602,0.1279 -1.039193,-0.17128 -1.039193,-0.84122 0,-0.57184 7.1831,-12.54957 15.96244,-26.61717 42.81978,-68.6124 56.26027,-91.18413 65.74241,-110.40667 5.51804,-11.18638 8.03936,-18.066566 8.17104,-22.297159 0.12092,-3.884965 -0.7747,-4.809502 -4.65903,-4.809502 -8.54424,0 -25.32782,8.058753 -73.934199,35.500021 -49.046656,27.68983 -64.66027,36.35271 -65.520566,36.35271 -1.301477,0 -1.666394,-0.85733 -0.82027,-1.92714 1.987558,-2.51299 38.927196,-28.60505 76.138935,-53.78021 32.59447,-22.051402 40.56919,-27.818088 46.10953,-33.342738 6.45439,-6.436134 6.67214,-10.236969 0.81723,-14.265245 C 146.18098,51.301621 137.28829,48.149846 101.19179,37.407888 49.897456,22.143208 5.8297633,8.0946977 4.9926292,6.7401862 4.7857838,6.4055033 4.9103039,5.8379147 5.2693404,5.4788781 5.7438492,5.0043693 11.235719,6.153901 25.377932,9.6879114 48.660951,15.506126 57.760623,17.522055 72.732447,20.178762 c 37.878033,6.72135 71.326313,8.344226 102.967013,4.995852 7.05148,-0.746223 6.78154,-0.890442 7.84333,4.19041 1.19897,5.737321 4.71305,15.594235 7.94934,22.297684 6.77603,14.035505 17.87405,26.235879 28.96511,31.842203 1.87797,0.949281 3.41221,2.05614 3.40942,2.459697 -0.003,0.403551 -0.2603,3.673159 -0.57223,7.265796 -2.00263,23.065026 -3.82061,61.273406 -4.83154,101.543946 -0.67749,26.98803 -0.39389,114.66371 0.44514,137.61876 0.38282,10.4734 0.37724,10.54038 -0.87715,10.54038 -0.82734,0 -1.36238,-0.46047 -1.55247,-1.3361 z"
     style="fill:#ea95bf;stroke-width:1.97053" />
  <path
     id="path20"
     d="m 281.299,321.11045 c 0.69692,-32.31829 0.49481,-126.42842 -0.31914,-148.60451 -1.16063,-31.62117 -2.84067,-62.78492 -4.27377,-79.275536 -0.31222,-3.592637 -0.56995,-6.862245 -0.57274,-7.265796 -0.003,-0.403557 1.53144,-1.510416 3.40941,-2.459697 11.10091,-5.611295 22.21965,-17.839834 28.95238,-31.842203 3.41202,-7.096153 5.40719,-12.5697 7.68696,-21.088482 0.80808,-3.0195 1.59398,-5.614755 1.74646,-5.767232 0.15247,-0.152477 3.03514,0.0146 6.40593,0.371274 30.8646,3.26593 63.00726,1.833667 99.65601,-4.440627 16.21469,-2.775968 24.89962,-4.667165 49.44994,-10.768031 15.82956,-3.9337171 20.81251,-4.9684418 21.34798,-4.4329709 0.47106,0.4710544 0.50289,0.8941442 0.0978,1.299277 -1.50955,1.5095429 -42.4954,14.6117669 -88.4135,28.2637369 -42.5651,12.655087 -52.53238,16.118527 -58.80324,20.432994 -5.85491,4.028276 -5.63716,7.829111 0.81723,14.265245 5.40961,5.394287 13.71177,11.438818 40.76511,29.679715 27.27396,18.389643 42.1541,28.662733 57.60095,39.767083 20.78163,14.93937 24.04988,17.46029 24.04988,18.5505 0,1.77757 -1.63144,1.21896 -9.72244,-3.32899 -4.28746,-2.40998 -23.42779,-13.192 -42.53409,-23.96003 -54.15597,-30.521532 -68.97079,-38.256111 -80.45853,-42.006087 -5.42104,-1.769608 -10.43948,-1.994079 -11.65997,-0.521544 -2.22044,2.678979 0.12646,11.234727 6.82824,24.892751 9.58408,19.53205 22.5351,41.37081 63.21584,106.5982 10.50791,16.84836 19.1053,31.09747 19.1053,31.66468 0,0.66061 -0.37169,0.95971 -1.0341,0.83215 -1.83588,-0.35356 -25.02181,-31.38425 -58.07863,-77.72902 -31.06246,-43.54874 -39.12402,-53.78116 -45.15647,-57.31641 -5.13243,-3.0078 -7.47058,-0.91482 -9.68887,8.67293 -2.27539,9.83452 -3.45876,22.66381 -6.29899,68.28979 -3.42705,55.0525 -5.95857,87.85102 -10.10634,130.93824 -1.76253,18.30925 -1.7267,18.11164 -3.2836,18.11164 -1.19294,0 -1.19818,-0.15658 -0.73096,-21.82304 z"
     style="fill:#ea95bf;stroke-width:1.97053" />
</svg>
